<?xml version="1.0" standalone="no"?>
<!DOCTYPE svg PUBLIC "-//W3C//DTD SVG 20010904//EN"
 "http://www.w3.org/TR/2001/REC-SVG-20010904/DTD/svg10.dtd">
<svg version="1.0" xmlns="http://www.w3.org/2000/svg"
 width="205.000000pt" height="205.000000pt" viewBox="0 0 205.000000 205.000000"
 preserveAspectRatio="xMidYMid meet">
<metadata>
Created by potrace 1.14, written by Peter Selinger 2001-2017
</metadata>
<g transform="translate(0.000000,205.000000) scale(0.100000,-0.100000)"
fill="#000000" stroke="none">
<path d="M131 1703 c-36 -7 -116 -93 -124 -132 -4 -18 -7 -266 -7 -550 0 -516
0 -517 23 -561 12 -24 39 -58 60 -74 l39 -31 889 -2 c858 -3 891 -2 927 16 47
24 77 56 97 103 23 56 23 1060 0 1116 -21 49 -52 81 -100 103 -38 18 -84 19
-910 17 -478 0 -881 -3 -894 -5z"/>
</g>
</svg>
